<?xml version="1.0" standalone="no"?><!DOCTYPE svg PUBLIC "-//W3C//DTD SVG 1.1//EN" "http://www.w3.org/Graphics/SVG/1.1/DTD/svg11.dtd"><svg class="icon" width="200px" height="200.00px" viewBox="0 0 1024 1024" version="1.1" xmlns="http://www.w3.org/2000/svg"><path fill="#333333" d="M903.6 312.52c-19.77-86.89-70.67-128.47-109.89-148C752 143.64 715.16 143 711.1 143H312.9c-4.06 0-40.85 0.6-82.61 21.44-39.22 19.57-90.12 61.15-109.89 148-26.07 114.72-52.06 273.01-51.35 368.22 0.36 48.9 11.39 88.88 32.79 118.83 18.62 26.06 54.87 57.19 121.81 57.47h0.75c48.08 0 88.31-19.64 116.38-56.82 26.08-34.57 33.87-74.35 36-89.85 2.86-20.77 12.79-34.42 31.25-43a90.63 90.63 0 0 1 32.46-7.78H583.7a91.94 91.94 0 0 1 30.76 7.1c19.41 8.46 29.82 22.32 32.76 43.64 2.13 15.5 9.92 55.28 36 89.85 28.07 37.22 68.3 56.9 116.38 56.9h0.75c66.94-0.28 103.19-31.41 121.81-57.47 21.4-30 32.43-69.93 32.79-118.83 0.71-95.25-25.28-253.54-51.35-368.18zM891 680.18c-0.27 35-7.48 63.36-20.87 82.1-14.65 20.51-37.55 30.54-70 30.68h-0.46c-70.88 0-86-69.93-89-91.41-5.94-43.1-31-76.33-70.6-93.57a152.74 152.74 0 0 0-56.31-12.43H440.37A153.39 153.39 0 0 0 384 608c-39.59 17.24-64.66 50.47-70.6 93.57-3 21.48-18.11 91.41-89 91.41h-0.46c-32.46-0.14-55.36-10.17-70-30.68-13.39-18.74-20.6-47.13-20.87-82.1-0.66-89.59 25.33-246 49.77-353.47C209.26 210.44 307.93 207.13 313.05 207H711c5.12 0.09 103.79 3.4 130.24 119.67 24.39 107.48 50.38 263.92 49.76 353.51zM442 377h-48v-48a32 32 0 0 0-64 0v48h-48a32 32 0 0 0 0 64h48v48a32 32 0 0 0 64 0v-48h48a32 32 0 0 0 0-64zM709.9 307.73a32 32 0 0 0-45.25 0l-90.51 90.51a32 32 0 0 0 45.25 45.26L709.9 353a32 32 0 0 0 0-45.27zM728.62 372.11l-90.51 90.51a32 32 0 1 0 45.25 45.25l90.51-90.51a32 32 0 0 0-45.25-45.25z" /></svg>